<svg width="180" height="108" viewBox="0 0 180 108" fill="none" xmlns="http://www.w3.org/2000/svg">
  <g stroke="#A97AD9" stroke-width="1.8" stroke-linecap="round" stroke-linejoin="round" opacity="0.78">
    <path d="M90 8C76 22 69 36 70 51C71 68 80 80 90 88C100 80 109 68 110 51C111 36 104 22 90 8Z"/>
    <path d="M90 23C81 36 77 48 78 60C79 72 84 81 90 88C96 81 101 72 102 60C103 48 99 36 90 23Z" opacity="0.62"/>
    <path d="M72 28C56 36 47 48 45 63C58 66 70 62 82 52"/>
    <path d="M108 28C124 36 133 48 135 63C122 66 110 62 98 52"/>
    <path d="M58 45C42 48 29 56 20 69C35 75 50 75 66 68"/>
    <path d="M122 45C138 48 151 56 160 69C145 75 130 75 114 68"/>
    <path d="M44 67C33 68 22 73 12 82C30 88 50 88 69 80"/>
    <path d="M136 67C147 68 158 73 168 82C150 88 130 88 111 80"/>
    <path d="M62 81C80 95 100 95 118 81"/>
    <path d="M36 89C70 105 110 105 144 89"/>
  </g>
  <g stroke="#A97AD9" stroke-width="1.1" stroke-linecap="round" opacity="0.28">
    <path d="M24 84C52 97 76 96 90 88"/>
    <path d="M156 84C128 97 104 96 90 88"/>
    <path d="M90 8V101"/>
  </g>
</svg>
